# xmcd
#
# Track frame offsets:
#   150
#   15244
#   29580
#   45060
#   60794
#   76708
#   92728
#   105810
#   118609
#   133300
#   149700
#   164491
#   181132
#   196552
#   211012
#
# Disc length: 3018 seconds
#
# Revision: 0
# Processed by: cddbd v1.5.2PL0 Copyright (c) Steve Scherf et al.
# Submitted via: uFREEDB ActiveX Control 1.5
#
DISCID=ae0bc80f
DTITLE=Edson and Hudson - Na Arena Ao Vivo
DYEAR=2007
DGENRE=Country
TTITLE0=Assovia
TTITLE1=Solidão Aqui Já Era
TTITLE2=Fala
TTITLE3=Galera Coração
TTITLE4=Tá No Meu Coração
TTITLE5=Imprevisivel
TTITLE6=Hoje Eu Posso Chorar
TTITLE7=Fui Buscar
TTITLE8=Ela Encasquetou
TTITLE9=Eu Quero Mais
TTITLE10=Foi Deus
TTITLE11=Vamos Fazer Festa
TTITLE12=Eu Não Sei Dizer Que Eu Não Te amo
TTITLE13=Não Sou Eu Que Te Faz Sonhar
TTITLE14=Solte A Garganta
EXTD=
EXTT0=
EXTT1=
EXTT2=
EXTT3=
EXTT4=
EXTT5=
EXTT6=
EXTT7=
EXTT8=
EXTT9=
EXTT10=
EXTT11=
EXTT12=
EXTT13=
EXTT14=
PLAYORDER=
